# xmcd CD database file
#
# Track frame offsets:
#	150
#	13748
#	32058
#	47129
#	61573
#	75395
#	92984
#	111493
#	122764
#	150248
#	163267
#	175035
#	190823
#	208015
#	228503
#	251129
#	266655
#	281845
#	296074
#
# Disc length: 4135 seconds
#
# Revision: 0
# Processed by: cddbd v1.5.2PL0 Copyright (c) Steve Scherf et al.
# Submitted via: CDex 1.51
#
DISCID=0e102513
DTITLE=Frank Sinatra - The Sound Track Volume 1 1939-1940
DYEAR=1900
DGENRE=Jazz
TTITLE0=My Buddy
TTITLE1=I Only Have Eyes For You
TTITLE2=The Lady Is A Tramp
TTITLE3=Melancholy Mood
TTITLE4=Moon Love
TTITLE5=Wishing Will Make It So
TTITLE6=Stardust
TTITLE7=Ciribiribin
TTITLE8=Jazz Tunes
TTITLE9=Our Love
TTITLE10=Marie
TTITLE11=Yearning
TTITLE12=Blue Moon
TTITLE13=It's A Wonderful World
TTITLE14=The Very Thought Of You
TTITLE15=Polka Dots And Moonbeams
TTITLE16=Fools Rush In
TTITLE17=You're Breaking My Heart (All Over Again)
TTITLE18=You're Lonely And I'm Lonely
EXTD=
EXTT0=
EXTT1=
EXTT2=
EXTT3=
EXTT4=
EXTT5=
EXTT6=
EXTT7=
EXTT8=
EXTT9=
EXTT10=
EXTT11=
EXTT12=
EXTT13=
EXTT14=
EXTT15=
EXTT16=
EXTT17=
EXTT18=
PLAYORDER=
